<svg width="256" height="256" viewBox="0 0 256 256" fill="none" xmlns="http://www.w3.org/2000/svg">
<mask id="mask0_36_19" style="mask-type:luminance" maskUnits="userSpaceOnUse" x="0" y="0" width="256" height="256">
<path d="M255.332 0H0V256H255.332V0Z" fill="white"/>
</mask>
<g mask="url(#mask0_36_19)">
<path d="M229.932 144.028C229.271 141.372 227.464 139.052 224.897 137.565C222.373 136.157 218.832 135.515 215.583 139.587C208.178 148.851 207.332 149.684 207.332 149.684C207.332 149.684 198.263 160.697 191.536 165.643C185.099 170.58 178.356 175.192 171.337 179.457C152.936 189.751 131.38 194.703 109.662 193.626C104.002 193.406 98.5997 191.467 94.3591 188.133C90.1149 184.801 87.2888 180.277 86.3531 175.317C84.6639 167.513 84.3783 159.521 85.5065 151.638C86.6412 141.372 89.9862 131.395 95.3596 122.248C103.911 106.332 114.501 91.3446 126.92 77.5818C133.094 71.0371 139.545 64.7107 146.38 58.7123C150.241 54.983 155.279 52.3738 160.837 51.225C161.603 51.583 162.278 52.0758 162.823 52.6733C163.362 53.2755 163.76 53.968 163.993 54.7091C164.219 55.4522 164.276 56.2278 164.162 56.991C164.041 57.7501 163.748 58.4797 163.3 59.136C158.451 68.9466 153.432 78.7158 149.059 88.7178C144.838 96.8048 143.213 105.769 144.364 114.624C145.935 120.804 149.306 126.509 154.14 131.17C158.967 135.836 165.087 139.299 171.891 141.213C174.183 141.912 176.693 141.785 178.881 140.858C181.066 139.919 182.747 138.255 183.561 136.226C188.441 126.866 193.183 117.493 197.955 108.106C203.159 99.0461 207.163 89.4816 209.887 79.6042C212.551 70.5546 211.195 60.9424 206.1 52.7552C200.538 44.7302 193.118 37.8464 184.33 32.5603C171.706 24.7996 158.127 19.9763 142.377 22.5861C130.21 24.6385 118.611 28.7786 108.23 34.7741C94.1853 42.8214 81.6323 52.7546 71.0194 64.2189C60.783 75.2938 51.8533 87.271 44.3698 99.9626C34.9327 115.098 28.6384 131.616 25.7872 148.728C23.9577 159.655 24.3069 170.782 26.8188 181.602C29.9601 196.246 38.7919 209.447 51.7747 218.904C64.9685 228.227 81.1844 233.548 98.0386 234.084C107.124 234.31 116.215 233.899 125.227 232.854C138.487 231.353 151.356 227.836 163.27 222.456C170.89 219.259 178.126 215.256 185.439 211.635C185.439 211.635 217.477 191.672 226.16 170.07C231.61 156.53 231.086 148.291 229.932 144.028Z" fill="white"/>
<path d="M253.895 138.958C251.773 130.719 246.06 123.561 238.007 119.05C233.153 116.302 227.551 114.772 221.796 114.623C226.928 105.123 230.942 95.1782 233.773 84.9462C238 70.5229 235.812 55.2093 227.661 42.1792L227.384 41.7283L227.076 41.2912C219.728 30.648 209.902 21.5218 198.256 14.5243C182.337 4.75488 166.864 0 150.945 0C146.528 0.00566234 142.121 0.376173 137.782 1.10674C122.487 3.66659 107.904 8.8609 94.8592 16.3962C78.6735 25.6822 64.2048 37.1357 51.9673 50.3501C40.7314 62.5178 30.9153 75.6656 22.6696 89.5917C11.8734 106.95 4.67737 125.887 1.42382 145.503C-0.824302 158.908 -0.407559 172.56 2.65535 185.838C6.92094 205.442 18.764 223.11 36.1407 235.792L36.4331 236.01C53.7827 248.204 75.0542 255.181 97.1686 255.932H97.3225C99.1852 255.973 101.033 256 102.896 256C111.405 255.997 119.906 255.508 128.344 254.538C144.292 252.737 159.773 248.522 174.115 242.077C180.258 239.481 185.847 236.625 191.251 233.852C193.314 232.799 195.377 231.747 197.44 230.723L198.548 230.176L199.595 229.52C203.536 227.074 238.361 204.775 249.353 177.421C255.296 162.678 256.805 149.725 253.895 138.958ZM226.168 170.07C217.485 191.672 185.447 211.635 185.447 211.635C178.134 215.255 170.898 219.259 163.277 222.456C151.363 227.836 138.494 231.353 125.234 232.854C116.222 233.899 107.131 234.31 98.0462 234.084C81.192 233.547 64.9764 228.227 51.7827 218.903C38.7995 209.446 29.9678 196.245 26.8265 181.602C24.3145 170.782 23.9653 159.655 25.7949 148.728C28.646 131.616 34.9404 115.098 44.3774 99.9626C51.8609 87.2707 60.7906 75.2938 71.027 64.2186C81.6398 52.7546 94.1929 42.8214 108.238 34.7738C118.619 28.7783 130.218 24.6383 142.385 22.5858C158.135 19.9761 171.714 24.7993 184.338 32.5603C193.126 37.8461 200.546 44.7299 206.107 52.7549C211.203 60.9424 212.559 70.5542 209.894 79.6038C207.171 89.4813 203.167 99.0458 197.963 108.106C193.191 117.493 188.449 126.866 183.568 136.226C182.754 138.255 181.073 139.919 178.888 140.857C176.701 141.784 174.191 141.912 171.899 141.212C165.095 139.298 158.975 135.836 154.147 131.17C149.313 126.508 145.942 120.803 144.371 114.623C143.22 105.769 144.845 96.8045 149.067 88.7174C153.439 78.7155 158.458 68.9462 163.308 59.1357C163.755 58.4797 164.048 57.7501 164.17 56.9907C164.284 56.2275 164.226 55.4522 164 54.7088C163.768 53.9677 163.37 53.2752 162.83 52.673L162.815 52.6592C162.723 52.5635 162.646 52.4816 162.553 52.3997C162.115 52.023 161.574 51.7533 160.983 51.6166C160.392 51.4803 159.772 51.4816 159.182 51.6208C159.134 51.6234 159.087 51.6326 159.043 51.6483C158.966 51.6755 158.874 51.6893 158.797 51.7165C158.443 51.8122 158.104 51.9078 157.781 52.017C157.119 52.2358 156.457 52.4678 155.81 52.7139C155.579 52.7958 155.379 52.8915 155.164 52.9872C154.979 53.0691 154.81 53.151 154.625 53.2333C153.247 53.9187 151.938 54.7098 150.714 55.5968C148.298 57.2589 146.004 59.0573 143.848 60.9805C143.678 61.1306 143.509 61.2672 143.355 61.4176C142.37 62.3056 141.4 63.2077 140.445 64.1229C139.891 64.6147 139.368 65.1069 138.86 65.5987C137.428 66.9514 136.027 68.304 134.626 69.6842C133.61 70.6816 132.609 71.6925 131.609 72.7174L131.562 72.7584C131.054 73.2774 130.531 73.8106 130.023 74.3434C128.976 75.409 127.944 76.4883 126.928 77.5814C114.509 91.3443 103.918 106.332 95.3672 122.248C89.9941 131.395 86.6491 141.372 85.5141 151.638C84.3859 159.521 84.6718 167.513 86.3607 175.317C87.2964 180.277 90.1225 184.801 94.3666 188.133C98.6072 191.467 104.01 193.406 109.67 193.626C131.387 194.703 152.943 189.75 171.344 179.457C178.363 175.191 185.107 170.58 191.543 165.643C198.271 160.697 207.339 149.684 207.339 149.684C207.339 149.684 208.186 148.851 215.591 139.587C218.84 135.515 222.38 136.157 224.905 137.564C227.471 139.052 229.278 141.372 229.94 144.027C231.094 148.29 231.618 156.529 226.168 170.07Z" fill="#262626"/>
</g>
</svg>
