<svg width="223" height="199" viewBox="0 0 223 199" fill="none" xmlns="http://www.w3.org/2000/svg">
<path d="M66.3865 176.474C57.9265 169.814 48.9065 163.434 42.7265 154.454C29.7465 138.614 19.7465 120.254 12.9265 100.974C8.78647 88.4344 7.38647 74.9944 2.04647 62.9344C-3.51353 54.1744 3.00647 44.6144 12.5865 41.8344C16.8465 41.0144 24.3665 36.9744 15.3065 39.8744C7.18647 45.8344 6.40647 34.4544 14.7265 33.7344C20.4065 32.9744 22.5065 28.3344 20.5665 24.1344C14.4665 20.1544 35.3665 15.7744 24.8465 9.83443C13.8865 -1.98557 40.1665 -4.26557 33.6865 9.17443C32.1465 19.4944 52.0465 7.27443 47.4265 19.1944C52.1265 24.9144 65.0265 20.4944 64.6865 28.5344C71.5265 29.0144 73.8865 34.7544 80.2865 35.1944C86.9465 38.1944 99.0065 40.5744 101.266 48.0744C94.6665 53.2944 79.3665 37.2744 78.6465 51.7544C80.6465 73.1344 80.1265 95.1544 87.9465 115.514C91.6465 127.834 100.606 137.534 108.706 147.134C116.466 156.534 126.946 163.154 137.666 168.734C147.046 173.154 157.166 176.094 167.406 177.934C171.546 174.754 178.886 162.974 185.346 167.934C185.666 173.534 172.506 179.614 184.726 179.014C191.906 176.854 196.886 184.554 202.806 177.594C208.246 184.054 225.446 173.474 221.566 186.654C216.326 190.034 208.686 187.994 203.426 192.654C194.766 188.334 187.886 196.514 178.306 195.494C167.666 197.394 156.846 198.174 146.046 198.174C128.346 196.774 110.266 196.194 93.4465 190.034C83.9665 187.274 74.7065 181.874 66.3865 176.474ZM81.3265 182.954C90.5865 186.954 99.6465 191.174 109.786 192.454C125.886 194.694 142.526 198.134 158.686 194.994C151.366 191.694 143.806 196.274 136.526 192.634C127.786 194.514 118.406 192.154 109.526 190.994C99.4265 186.494 88.5265 183.394 79.0665 177.554C67.2465 173.234 85.1865 183.094 88.3665 183.894C95.7465 188.094 80.2465 181.734 78.0465 179.994C71.8665 176.514 71.0665 177.254 77.4265 180.774C78.7065 181.514 79.9865 182.314 81.3265 182.954ZM63.7065 170.494C72.6865 173.814 63.6665 164.174 59.5665 164.734C57.7465 161.574 52.6065 159.574 56.2265 157.874C49.7065 160.134 49.3865 149.274 46.3265 150.814C39.4265 148.634 43.6465 140.914 35.4265 136.174C34.6865 131.174 27.2665 126.854 24.9065 119.314C23.8665 115.454 16.5265 104.394 21.0265 114.694C24.8665 124.614 31.6065 133.114 37.2265 141.594C41.5865 149.674 46.7465 158.114 54.6665 163.154C57.3465 165.754 59.9265 169.694 63.7065 170.494ZM37.8465 142.114C38.1665 140.754 39.4865 145.034 37.8465 142.114V142.114ZM74.4465 174.474C71.5865 173.354 76.4465 173.594 74.4465 174.474V174.474ZM79.3265 176.254C77.1065 177.634 78.8265 173.794 79.3265 176.254V176.254ZM85.4265 178.794C80.9465 177.054 88.3265 176.034 85.4265 178.794V178.794ZM95.8665 184.614C90.2265 183.634 97.6465 182.014 95.8665 184.614V184.614ZM75.8065 170.634C69.9865 170.594 80.3065 167.714 75.8065 170.634V170.634ZM80.3865 172.914C78.7465 173.594 80.2465 171.374 80.3865 172.914V172.914ZM103.246 187.174C106.926 189.494 124.706 192.254 113.566 188.134C111.706 188.534 92.9065 182.814 103.246 187.174ZM66.9465 158.914C61.2465 157.214 66.5865 157.374 66.9465 158.914V158.914ZM77.5865 165.114C71.8465 163.634 80.3665 163.194 77.5865 165.114V165.114ZM86.5465 170.614C80.0865 169.114 90.5065 169.114 86.5465 170.614V170.614ZM62.6065 154.194C66.9265 157.494 80.0065 154.614 69.2065 152.214C64.3065 149.594 53.2265 147.814 60.7665 153.794L62.6065 154.194ZM92.6065 172.514C85.0665 170.754 94.4065 169.454 92.6065 172.514V172.514ZM83.4865 165.254C94.0265 168.234 74.6265 158.574 80.8865 164.154L82.2865 164.794L83.4865 165.254ZM101.766 175.814C92.7465 174.454 111.746 175.914 101.766 175.814V175.814ZM58.7665 148.414C56.3065 148.574 58.3865 146.554 58.7665 148.414V148.414ZM118.646 185.294C115.406 187.794 118.926 181.934 118.646 185.294V185.294ZM75.8065 158.854C72.6865 158.774 75.2065 157.094 75.8065 158.854V158.854ZM59.7265 147.254C51.8665 144.734 65.4465 146.914 59.7265 147.254V147.254ZM40.6465 134.934C34.4065 129.994 39.9265 132.174 40.6465 134.934V134.934ZM90.7065 166.694C89.6665 165.494 90.2065 166.954 90.7065 166.694V166.694ZM121.866 185.814C120.166 186.514 121.766 183.994 121.866 185.814V185.814ZM87.9465 163.854C83.0665 163.134 88.5065 161.494 87.9465 163.854V163.854ZM64.7465 149.134C57.9065 146.254 69.0065 148.674 64.7465 149.134V149.134ZM104.006 173.534C97.5265 172.254 110.646 170.894 104.006 173.534V173.534ZM83.5865 159.674C91.2465 160.654 74.4665 154.454 81.9065 159.114L83.5865 159.674ZM110.206 176.054C117.366 171.774 115.006 186.074 122.346 177.254C129.586 171.974 116.086 183.794 125.006 178.194C131.466 173.874 140.986 180.234 147.006 182.314C151.326 182.094 155.546 186.054 159.986 183.654C168.526 181.354 143.266 180.234 149.886 176.154C142.066 178.434 136.286 173.434 132.446 168.434C123.666 166.414 113.526 161.934 109.146 154.154C107.366 151.234 111.726 154.574 107.606 149.794C102.326 145.094 99.6865 139.754 96.1465 134.034C91.9065 131.774 91.4065 125.114 90.9865 133.814C91.0265 128.334 85.8665 124.634 84.6065 126.174C84.5865 120.894 90.1265 123.534 86.2465 119.634C85.4065 114.154 82.6665 108.454 81.8465 102.274C80.5665 99.2944 81.6665 92.9144 77.4665 99.6544C75.9465 106.794 76.9665 90.8944 79.3465 96.1344C82.4665 90.7944 78.2265 91.4144 78.0465 92.1544C80.0865 87.6344 79.3265 81.2344 77.5065 83.6744C78.5865 78.8944 79.2265 66.0744 75.8865 68.3544C77.9065 63.3544 79.7265 45.4744 70.9465 52.2944C67.3865 52.3544 61.2465 53.5744 58.3265 55.0344C67.4465 60.0544 57.4065 56.8544 53.6865 56.0544C53.2065 60.7144 49.5265 58.6944 44.9265 58.7344C52.2665 59.6344 41.3465 66.2344 37.1465 63.6744C31.6665 66.2944 41.8665 72.8144 37.2465 74.8344C37.8065 77.8744 28.8665 73.7344 29.5665 80.7544C24.2665 78.5144 28.8465 89.0744 31.4865 85.5144C40.5065 87.9544 37.8465 93.5344 38.0665 98.8144C36.5865 101.894 30.8065 91.5744 36.7865 92.0544C32.0665 84.3944 31.5665 89.2944 27.6665 92.8344C26.7665 93.0944 37.6465 97.8944 30.8065 100.274C36.8265 101.214 37.0065 106.474 38.2265 109.794C41.8465 113.554 41.1065 105.634 45.4265 110.154C42.6865 106.114 30.9265 98.7944 40.3865 101.134C40.3265 97.0744 38.6665 93.7944 41.5865 93.8744C44.4665 88.6744 38.5665 106.714 45.0465 100.094C46.8465 99.3144 47.2865 94.8944 50.5065 100.514C55.1865 105.114 52.2065 108.454 45.5865 104.234C46.7665 108.254 54.4265 109.674 52.9865 115.954C54.5065 121.474 56.6465 119.434 58.5065 119.114C59.9665 124.474 60.7865 120.534 60.8665 117.974C67.5465 119.414 65.9865 123.354 68.0665 126.114C72.6665 128.194 61.4865 112.034 69.3865 121.254C77.7065 128.754 72.5065 131.894 65.0465 130.694C69.7665 130.314 71.2865 137.074 77.1865 136.834C82.5665 139.394 86.2265 149.234 76.9465 145.134C73.7265 142.234 62.3265 138.654 71.6465 144.174C80.2465 148.154 87.0665 150.534 95.3665 155.534C101.286 159.774 103.866 164.614 106.106 165.574C101.126 167.954 91.0865 163.674 98.5465 162.354C93.8865 161.514 88.6665 159.154 93.1265 164.954C96.9065 168.114 106.546 167.794 108.286 168.134C106.826 171.354 104.306 171.614 108.346 171.854C103.846 174.294 109.786 174.674 110.206 176.054ZM101.006 150.054C98.2665 147.194 97.5665 141.834 100.526 146.494C102.026 147.094 105.386 155.254 101.006 150.054ZM130.986 169.094C131.026 170.394 132.686 168.974 130.986 169.094V169.094ZM96.6865 143.034C96.5665 138.694 97.6665 146.374 96.6865 143.034V143.034ZM93.7065 139.014C90.2465 132.374 98.0465 140.914 93.7065 139.014V139.014ZM57.5865 114.094C58.5865 117.554 59.6065 113.554 57.5865 114.094V114.094ZM86.3265 129.674C87.5665 125.014 87.7865 133.594 86.3265 129.674V129.674ZM66.0265 115.554C64.6065 112.974 69.0265 117.974 66.0265 115.554V115.554ZM83.4465 121.134C80.1865 113.834 85.7665 117.134 84.1665 122.334L83.4465 121.134ZM53.4065 101.114C51.9465 98.7144 49.5465 91.6744 50.3065 89.5344C51.0065 93.0344 57.7465 104.594 53.6065 94.3144C49.0465 85.7144 59.0665 97.1144 60.1065 99.2544C60.5865 101.394 57.2865 98.6744 59.5265 103.674C55.4465 97.9744 57.1265 106.834 53.4065 101.114ZM44.1265 94.7144C44.5065 89.1344 46.2465 98.5344 44.1265 94.7144V94.7144ZM48.2865 96.1544C50.2865 91.9344 51.6665 102.014 48.2865 96.1544V96.1544ZM38.2465 88.3744C34.7865 84.9344 32.2865 81.7744 38.4065 86.2344C40.7665 86.3344 33.1665 79.0344 38.9665 83.9144C45.0865 85.0344 41.9865 93.9344 38.2465 88.3744ZM43.5265 88.2344C44.5865 90.1944 45.5265 86.2544 43.5265 88.2344V88.2344ZM46.7665 89.2744C43.7265 83.5744 50.4665 91.6744 46.7665 89.2744V89.2744ZM40.3265 83.1144C30.2865 74.1744 52.9465 87.7944 41.9665 84.7744L40.3265 83.1144ZM69.1065 99.8344C64.7465 97.2344 67.9465 81.4744 69.4265 92.2544C73.6465 90.8944 69.1865 97.8144 72.3465 97.7544C71.8665 102.114 70.4465 103.694 69.1065 99.8344ZM79.7665 106.134C80.1865 101.374 80.6665 109.374 79.7665 106.134V106.134ZM77.9065 104.294C77.9665 106.694 78.3865 102.274 77.9065 104.294V104.294ZM42.2865 80.1744C35.8265 71.2744 61.0465 89.1944 46.4265 82.4344C44.8865 82.0144 43.0465 81.8744 42.2865 80.1744ZM62.8065 91.0344C62.1865 83.5344 64.1665 92.2744 62.8065 91.0344V91.0344ZM78.3665 101.034C78.4665 103.854 79.5665 96.7544 78.3665 101.034V101.034ZM43.2865 76.7744C47.1265 75.9544 59.1865 83.5144 48.1065 78.9344C46.8665 77.5544 44.2465 78.1744 43.2865 76.7744ZM76.2265 93.1944C76.6265 85.5144 78.5265 88.6144 76.2465 94.2944L76.2265 93.1944ZM46.1265 74.0944C47.6865 71.7944 41.9665 63.7344 46.9465 71.1944C49.1065 72.8944 53.1665 74.0544 49.5665 74.7744C55.2465 79.7744 48.2065 76.1344 46.1265 74.0944ZM74.6065 90.7944C75.5465 95.9144 75.6865 82.0544 74.6065 90.7944V90.7944ZM42.8665 66.0344C43.5065 67.6144 44.0665 65.5144 42.8665 66.0344V66.0344ZM50.2865 70.4544C52.2065 66.4344 53.8265 74.9144 50.2865 70.4544V70.4544ZM71.2265 82.0944C71.2265 80.5544 71.6265 84.3344 71.2265 82.0944V82.0944ZM70.0265 79.4144C67.1265 72.2344 72.7265 83.2144 70.0265 79.4144V79.4144ZM68.2465 74.7144C67.7465 71.7544 69.9065 78.4344 68.2465 74.7144V74.7144ZM71.1465 69.9944C69.1465 66.4744 73.6665 54.4944 74.1665 61.9344C72.0665 67.7144 73.5665 70.9544 75.0265 63.1944C77.7465 57.0744 74.4465 75.2344 71.1465 69.9944ZM74.1265 52.1744C74.3265 53.4744 75.0065 51.1144 74.1265 52.1744V52.1744ZM69.1465 150.414C67.9665 149.374 69.2865 151.074 69.1465 150.414V150.414ZM79.4065 155.614C85.1265 157.094 85.0865 154.734 79.9265 154.034C77.1465 151.454 68.3865 148.714 76.2265 153.714C76.7665 155.014 78.4065 154.974 79.4065 155.614ZM59.1265 142.134C62.2665 144.494 70.9865 148.774 63.6065 143.034C66.0865 140.154 58.8465 138.614 61.2465 136.674C55.1265 132.934 56.4265 133.274 60.7065 133.394C53.3665 130.114 61.7665 130.354 61.3665 128.674C58.5265 128.114 47.3065 123.674 53.9065 129.034C47.1865 125.614 52.3065 130.314 50.2665 129.814C43.3865 127.934 56.3865 135.054 49.1865 133.274C53.1265 136.394 59.7865 141.274 50.8465 136.574C49.7065 138.274 57.2665 140.854 59.1265 142.134ZM69.8665 148.314C63.4665 143.154 82.9265 152.514 69.8665 148.314V148.314ZM124.866 181.614C123.066 183.834 125.026 179.014 124.866 181.614V181.614ZM130.506 183.994C133.526 181.074 130.626 188.654 135.506 183.274C135.566 179.434 135.366 177.154 129.906 181.834C128.406 182.674 127.726 186.214 130.506 183.994ZM40.8065 127.654C34.3065 124.034 39.8665 124.014 40.8065 127.654V127.654ZM46.8265 131.614C38.8265 128.254 44.5865 127.894 46.8265 131.614V131.614ZM81.1665 152.314C84.5265 155.294 96.5665 154.494 85.2265 152.674C83.5665 150.194 74.5865 150.794 81.1665 152.314ZM128.366 181.454C123.366 183.394 133.506 177.134 128.366 181.454V181.454ZM139.086 188.834C136.866 189.434 139.126 187.454 139.086 188.834V188.834ZM139.106 186.894C133.566 187.254 144.826 180.834 139.106 186.894V186.894ZM25.9465 115.234C21.0865 108.294 22.9265 105.174 18.2265 99.4944C17.3265 95.1544 10.1665 85.3144 14.5265 95.7344C18.5065 101.834 19.6865 111.274 25.9465 115.234ZM137.306 184.974C133.006 182.014 147.826 178.174 137.306 184.974V184.974ZM145.326 188.114C142.006 187.174 150.606 183.594 145.326 188.114V188.114ZM39.0065 119.974C35.1265 119.694 40.5265 117.734 39.0065 119.974V119.974ZM143.666 185.954C148.766 182.674 142.486 183.174 142.746 186.254L143.666 185.954ZM74.5065 142.374C71.8065 142.554 74.3265 140.154 74.5065 142.374V142.374ZM78.7865 144.834C76.6865 145.254 77.4065 142.074 78.7865 144.834V144.834ZM151.846 188.174C158.386 183.454 147.886 187.274 150.486 189.074L151.846 188.174ZM149.326 186.974C143.726 188.954 154.666 182.514 149.326 186.974V186.974ZM162.106 195.474C157.766 194.714 165.686 193.094 162.106 195.474V195.474ZM42.2865 118.354C47.0665 119.434 61.4065 130.134 52.9465 119.094C48.6065 117.814 51.2065 107.214 46.7865 109.094C49.7465 114.054 49.2265 116.154 42.9865 113.034C35.1665 109.214 38.5865 114.914 40.1265 116.494C38.0465 116.994 42.9065 118.314 42.2865 118.354ZM20.4865 101.134C21.3465 97.5944 12.5865 81.6344 16.3465 93.1344C17.7065 95.5544 17.5665 100.114 20.4865 101.134ZM60.5065 125.814C58.0465 123.754 60.3865 125.514 60.5065 125.814V125.814ZM66.5665 127.234C59.8665 125.694 66.5665 123.474 66.5665 127.234V127.234ZM119.166 160.374C115.206 160.334 118.166 157.814 119.166 160.374V160.374ZM121.686 162.234C120.246 162.514 121.326 160.794 121.686 162.234V162.234ZM142.546 175.354C140.046 175.174 144.546 173.874 142.546 175.354V175.354ZM31.3665 103.914C25.2265 102.334 37.1065 101.694 31.3665 103.914V103.914ZM114.546 156.314C110.886 157.234 114.466 152.594 114.546 156.314V156.314ZM29.1065 98.6344C25.6865 97.8144 32.7865 97.3944 29.1065 98.6344V98.6344ZM39.7865 103.814C38.6665 104.274 39.7265 102.594 39.7865 103.814V103.814ZM170.226 183.794C174.966 182.834 185.766 186.214 187.506 182.534C181.746 182.394 167.606 178.474 166.946 183.454L168.206 183.654L170.226 183.794ZM43.1865 104.674C40.2665 104.534 43.2865 100.914 43.1865 104.674V104.674ZM15.0865 85.1744C10.2265 84.0944 13.8065 78.0144 15.0865 85.1744V85.1744ZM21.7865 86.8544C15.6465 84.7944 21.8665 84.5544 21.7865 86.8544V86.8544ZM25.6065 88.7344C24.5065 87.8544 24.7465 89.8744 25.6065 88.7344V88.7344ZM49.7265 104.194C47.0265 103.434 50.8665 103.154 49.7265 104.194V104.194ZM23.0665 84.4944C15.3065 83.6944 22.4065 79.0744 23.0665 84.4944V84.4944ZM9.32647 75.5744C7.98647 76.5144 9.12647 73.0744 9.32647 75.5744V75.5744ZM11.3665 74.0344C9.60647 74.4144 11.0265 71.0744 11.3665 74.0344V74.0344ZM22.6665 80.7744C27.4465 78.8944 13.9665 76.8944 21.6865 80.4144L22.6665 80.7744ZM173.846 174.154C169.966 173.294 176.906 171.354 173.846 174.154V174.154ZM192.106 183.634C189.026 184.094 193.326 180.014 192.106 183.634V183.634ZM23.8065 74.8544C20.0265 75.5544 24.3265 71.3544 23.8065 74.8544V74.8544ZM7.74647 64.0944C6.88647 59.1544 7.00647 50.4544 15.2665 53.3944C4.24647 55.5944 22.9065 67.0944 20.5465 58.0144C25.1865 58.2344 29.6065 55.2744 27.1865 59.7744C36.3265 58.7744 42.6465 50.8544 51.4665 51.9544C58.3465 51.0344 65.8465 50.3544 73.2465 47.5944C79.3265 47.1544 85.1865 40.5944 81.8665 36.7144C73.5665 36.0144 64.8665 37.0544 55.7065 38.8744C45.5465 40.9944 36.3065 44.9944 26.0465 46.7344C16.0465 48.0744 28.0465 50.4344 25.1865 50.9544C19.9665 52.7544 31.4065 53.9944 24.5065 55.8944C20.2465 55.0744 15.8065 53.6144 17.6265 49.1344C8.04647 50.3744 -0.373527 54.3544 7.20647 64.0944H7.74647ZM30.8265 52.3344C33.0665 44.0544 42.8465 59.1344 34.5065 53.4344C33.5065 52.6744 31.8665 52.0744 30.8265 52.3344ZM31.2665 48.3144C32.9865 49.6744 34.5065 45.9144 31.2665 48.3144V48.3144ZM35.3865 48.3944C35.6865 44.5944 44.8065 50.4144 36.8865 49.7544L35.3865 48.3944ZM41.0065 46.1144C41.6065 48.2544 43.0665 43.7144 41.0065 46.1144V46.1144ZM42.4465 45.1544C45.8665 41.0344 61.8265 42.5344 50.1465 44.7544C47.0265 42.3944 44.6265 46.1544 42.4465 45.1544ZM63.2865 41.9544C62.7665 30.7144 73.6465 45.9344 63.2865 41.9544V41.9544ZM69.2065 41.9144C71.3665 36.2544 77.6065 39.6344 70.2065 40.7744C70.3665 41.3744 69.9865 43.6944 69.2065 41.9144ZM21.4865 71.9544C14.6265 68.5144 27.9465 67.9944 21.4865 71.9544V71.9544ZM26.2665 73.2744C21.3465 72.2944 28.5265 70.8744 26.2665 73.2744V73.2744ZM12.1865 63.2944C7.82647 62.2144 15.8865 60.4544 12.1865 63.2944V63.2944ZM202.886 182.594C200.066 184.074 202.986 179.294 202.886 182.594V182.594ZM183.506 169.374C181.026 169.694 184.066 165.574 183.506 169.374V169.374ZM208.226 183.874C213.386 183.894 223.866 182.274 212.626 182.274C210.866 182.534 202.366 182.494 208.226 183.874ZM30.4665 70.9544C34.6465 70.6744 37.0065 66.3544 29.6465 66.5944C18.2665 65.4144 39.6865 70.4944 28.1865 69.0344C26.6465 70.0544 30.3665 71.2344 30.4665 70.9544ZM34.1465 72.8144C32.8465 74.2344 33.7065 70.1344 34.1465 72.8144V72.8144ZM38.5065 61.1744C35.9865 60.5744 40.3065 58.9344 38.5065 61.1744V61.1744ZM24.6065 37.9744C32.0665 35.4344 42.2465 32.5944 45.7665 39.2144C42.1865 34.9144 44.3265 30.6544 47.7065 36.9744C52.4865 43.3544 54.8865 34.0744 51.7665 31.9344C55.3065 36.3344 59.3465 38.4144 54.1465 32.2144C59.8065 25.4144 42.8265 33.1144 38.9665 33.0344C37.1265 33.8544 19.8065 37.4344 24.6065 37.9744ZM28.9865 29.6144C33.2465 26.4144 43.6865 31.5344 36.9865 26.4344C36.3265 25.8344 22.2865 30.2944 28.9865 29.6144ZM44.4865 30.2544C49.4665 30.3744 42.3465 23.5744 48.2665 26.6544C47.2865 23.4744 41.3665 22.8744 38.4665 21.6144C36.8265 24.5144 41.7865 30.2944 44.4865 30.2544ZM31.7065 16.1744C28.6865 17.3744 33.4265 13.8544 31.7065 16.1744V16.1744ZM38.0265 17.6944C46.0465 16.6344 35.9865 14.2544 36.4065 17.6144L38.0265 17.6944ZM26.2065 8.45443C20.5665 1.07443 36.8265 9.69443 31.0865 1.97443C26.2665 -1.86557 21.6265 6.29443 26.2065 8.45443ZM98.6265 47.4544C101.206 42.8744 87.9465 41.2744 96.8865 45.8344C97.7265 46.1144 97.5265 47.7744 98.6265 47.4544Z" fill="#010101"/>
</svg>
