<svg width="256" height="256" viewBox="0 0 256 256" fill="none" xmlns="http://www.w3.org/2000/svg">
<mask id="mask0_33_19" style="mask-type:luminance" maskUnits="userSpaceOnUse" x="0" y="0" width="256" height="256">
<path d="M0 0H255.686V255.686H0V0Z" fill="white"/>
</mask>
<g mask="url(#mask0_33_19)">
<path d="M250.869 116.458L139.231 4.82783C137.701 3.29756 135.885 2.08363 133.887 1.2554C131.888 0.427171 129.746 0.00087738 127.583 0.00087738C125.419 0.00087738 123.277 0.427171 121.278 1.2554C119.28 2.08363 117.464 3.29756 115.935 4.82783L92.761 28.0125L122.162 57.4136C125.619 56.2397 129.335 56.0564 132.89 56.8845C136.445 57.7126 139.698 59.519 142.28 62.0995C144.877 64.6986 146.689 67.9761 147.511 71.557C148.332 75.1379 148.129 78.8777 146.924 82.3485L175.271 110.687C178.743 109.481 182.484 109.278 186.066 110.101C189.648 110.923 192.925 112.739 195.523 115.339C197.342 117.158 198.785 119.318 199.77 121.695C200.755 124.072 201.262 126.62 201.262 129.192C201.262 131.765 200.755 134.313 199.77 136.69C198.785 139.067 197.342 141.226 195.523 143.046C191.844 146.72 186.858 148.784 181.658 148.784C176.459 148.784 171.472 146.72 167.794 143.046C165.061 140.309 163.2 136.824 162.443 133.031C161.687 129.239 162.069 125.307 163.542 121.731L137.107 95.3044V164.861C139.898 166.24 142.319 168.263 144.172 170.763C146.024 173.264 147.255 176.17 147.76 179.24C148.266 182.311 148.033 185.458 147.081 188.421C146.128 191.383 144.484 194.076 142.283 196.277C140.464 198.096 138.304 199.54 135.927 200.524C133.55 201.509 131.003 202.016 128.43 202.016C125.857 202.016 123.309 201.509 120.932 200.524C118.555 199.54 116.396 198.096 114.577 196.277C112.757 194.458 111.313 192.298 110.328 189.921C109.343 187.543 108.836 184.995 108.836 182.422C108.836 179.849 109.343 177.301 110.328 174.924C111.313 172.547 112.757 170.387 114.577 168.568C116.41 166.731 118.589 165.275 120.988 164.285V94.0884C118.599 93.1043 116.428 91.6579 114.599 89.8322C112.771 88.0066 111.321 85.8377 110.333 83.4501C109.345 81.0625 108.839 78.5032 108.843 75.9194C108.848 73.3356 109.363 70.778 110.358 68.3937L81.369 39.399L4.81384 115.935C1.72892 119.026 -0.00366211 123.214 -0.00366211 127.581C-0.00366211 131.948 1.72892 136.137 4.81384 139.228L116.458 250.872C119.549 253.956 123.737 255.688 128.103 255.688C132.469 255.688 136.657 253.956 139.748 250.872L250.869 139.751C253.954 136.66 255.686 132.471 255.686 128.104C255.686 123.737 253.954 119.549 250.869 116.458Z" fill="#F03C2E"/>
</g>
</svg>
