<svg width="256" height="256" viewBox="0 0 256 256" fill="none" xmlns="http://www.w3.org/2000/svg">
<g clip-path="url(#clip0_36_33)">
<path d="M256 256H0V0H256V256Z" fill="#D00000"/>
<path d="M68 198.4C68 198.6 68.2 198.8 68.2 199L72.6 203.4C72.8 203.6 73 203.6 73.2 203.6H88.2C88.4 203.6 88.6 203.4 88.8 203.4L93.2 199C93.4 198.8 93.4 198.6 93.4 198.4V150.8C93.4 150.6 93.6 150.4 93.6 150.2L112.6 132C112.8 131.8 113 131.8 113 132L161.2 203.2C161.4 203.4 161.6 203.4 161.8 203.4H183C183.2 203.4 183.4 203.2 183.6 203L187.4 195.6V195L131.2 113.6C131 113.4 131.2 113.2 131.2 113L183 61.4C183.2 61.2 183.2 61 183.2 60.8V59.8C183.2 59.6 183.2 59.4 183 59.2L180 52.4C180 52.2 179.8 52 179.6 52H158.6C158.4 52 158.2 52.2 158 52.2L93.8 116.8C93.6 117 93.6 116.8 93.6 116.6V57.6C93.6 57.4 93.4 57.2 93.4 57L89 52.4C88.8 52.2 88.6 52.2 88.4 52.2H73.2C73 52.2 72.8 52.4 72.6 52.4L68.2 57.2C68 57.4 68 57.6 68 57.8V198.4Z" fill="white"/>
</g>
<defs>
<clipPath id="clip0_36_33">
<rect width="256" height="256" fill="white"/>
</clipPath>
</defs>
</svg>
