<svg width="256" height="256" viewBox="0 0 256 256" fill="none" xmlns="http://www.w3.org/2000/svg">
<path d="M89.3121 154.688C89.4508 154.048 89.5681 153.429 89.7174 152.875L90.3681 154.421C91.5948 157.408 92.8108 160.363 95.7654 162.037C95.6374 164.747 92.2028 165.845 89.8774 165.515C89.3654 164.299 88.6508 163.083 87.1574 163.765C85.6321 164.363 83.9574 163.659 84.3201 161.792C87.8721 161.664 88.6614 157.835 89.3121 154.688ZM196.107 98.6133C192.715 98.6133 189.536 99.9147 187.157 102.261L177.536 111.723C174.944 114.283 173.611 117.824 173.877 121.461L173.941 122.059C174.283 124.853 175.531 127.371 177.536 129.333C178.923 130.699 180.448 131.573 182.304 132.171C182.579 133.662 182.483 135.199 182.023 136.644C181.564 138.09 180.755 139.4 179.669 140.459L179.072 141.045C175.396 139.832 172.115 137.652 169.572 134.733C167.028 131.815 165.318 128.266 164.619 124.459L164.512 123.851L164.021 124.245C163.701 124.501 163.381 124.779 163.083 125.077L153.461 134.539C152.292 135.686 151.363 137.056 150.729 138.567C150.095 140.078 149.768 141.7 149.768 143.339C149.768 144.977 150.095 146.599 150.729 148.11C151.363 149.621 152.292 150.991 153.461 152.139C155.925 154.571 159.168 155.787 162.421 155.787C165.664 155.787 168.896 154.571 171.36 152.149L180.981 142.677C182.488 141.204 183.592 139.369 184.188 137.348C184.784 135.327 184.852 133.187 184.386 131.132C183.919 129.077 182.934 127.175 181.524 125.609C180.114 124.044 178.326 122.865 176.331 122.187C176.057 120.563 176.183 118.897 176.695 117.333C177.208 115.769 178.093 114.352 179.275 113.205C182.98 114.446 186.288 116.651 188.859 119.595C191.429 122.538 193.169 126.113 193.899 129.952L194.005 130.56L194.507 130.165C194.827 129.909 195.147 129.632 195.445 129.333L205.067 119.861C206.238 118.714 207.168 117.345 207.803 115.834C208.438 114.323 208.765 112.7 208.765 111.061C208.765 109.422 208.438 107.8 207.803 106.289C207.168 104.778 206.238 103.408 205.067 102.261C202.68 99.9083 199.458 98.5966 196.107 98.6133Z" fill="#1C3C3C"/>
<path fill-rule="evenodd" clip-rule="evenodd" d="M190.944 64H65.0667C29.184 64 0 92.7147 0 128C0 163.285 29.184 192 65.056 192H190.933C226.816 192 256 163.285 256 128C256 92.7147 226.816 64 190.944 64ZM128.853 164.341C126.773 164.768 124.437 164.843 122.859 163.211C122.379 164.277 121.408 164.032 120.501 163.808C120.286 163.75 120.069 163.7 119.851 163.659C119.744 163.925 119.669 164.171 119.573 164.437C116.064 164.661 113.44 161.141 111.765 158.485C110.123 157.652 108.439 156.904 106.72 156.245C104.885 155.499 103.04 154.752 101.291 153.792C101.252 154.406 101.238 155.022 101.248 155.637C101.227 158.24 101.205 161.003 98.8267 162.581C98.752 165.728 101.344 165.696 103.904 165.675C106.112 165.643 108.277 165.621 108.672 167.637C108.495 167.657 108.317 167.668 108.139 167.669C107.648 167.669 107.157 167.669 106.784 168.032C105.536 169.216 104.203 168.704 102.816 168.171C101.536 167.68 100.224 167.168 98.9013 167.957C97.9349 168.443 97.0013 168.992 96.1067 169.6C94.4156 170.871 92.3755 171.593 90.2613 171.669C90.0053 171.285 90.112 171.04 90.3253 170.816C90.4906 170.627 90.6438 170.427 90.784 170.219C90.9867 169.92 91.1573 169.611 91.328 169.323C91.904 168.309 92.4267 167.403 93.9093 166.976C91.936 166.667 90.24 167.563 88.576 168.437L88.5333 168.459C88.3033 168.582 88.0722 168.702 87.84 168.821C86.8053 169.248 86.1973 168.917 85.5787 168.576C84.704 168.096 83.7867 167.595 81.568 169.003C81.1413 168.661 81.3547 168.352 81.5893 168.085C82.56 166.923 83.8293 166.752 85.2693 166.816C81.5253 164.757 78.8267 166.219 76.6293 167.403C74.688 168.448 73.1413 169.28 71.6053 167.275C70.912 167.456 70.5173 167.947 70.1333 168.427C69.9733 168.64 69.8133 168.832 69.632 169.013C69.2587 168.597 69.344 168.128 69.44 167.648L69.4933 167.371C69.5106 167.265 69.5213 167.158 69.5253 167.051L69.2373 166.944C68.672 166.709 68.1173 166.475 68.2773 165.621C67.0293 165.195 66.144 165.941 65.2267 166.624C64.6507 166.187 65.12 165.611 65.568 165.077C65.7601 164.87 65.9217 164.637 66.048 164.384C66.4533 163.691 67.1467 163.669 67.8187 163.648C68.3947 163.637 68.9707 163.616 69.3653 163.2C70.784 162.4 72.5333 162.816 74.2933 163.232C75.584 163.531 76.8747 163.84 78.0693 163.68C80.2347 163.947 82.912 161.76 81.824 159.573C79.84 157.088 79.8613 153.941 79.872 150.901V149.376C79.7013 148.224 78.0373 146.891 76.3733 145.557C75.0933 144.544 73.8133 143.52 73.1947 142.571C71.488 140.683 70.1547 138.496 68.832 136.331L68.672 136.075C66.4107 131.765 65.504 126.901 64.5973 122.048C63.4987 116.224 62.4107 110.421 58.9867 105.621C56.1493 107.157 52.4587 106.421 50.016 104.363C48.736 105.504 48.6293 106.997 48.544 108.587L48.5333 108.736C45.3653 105.621 45.76 99.7333 48.288 96.256C49.3227 94.8907 50.56 93.7707 51.936 92.7787C52.256 92.5547 52.3627 92.3307 52.352 91.9893C54.8587 80.896 71.936 83.04 77.3333 90.8907C79.1147 93.088 80.3307 95.6053 81.5467 98.1227C83.008 101.141 84.4587 104.16 86.88 106.603C89.2267 109.131 91.7013 111.541 94.176 113.952C98.0053 117.685 101.835 121.408 105.184 125.568C110.411 131.829 114.133 139.179 117.387 146.581C117.92 147.563 118.24 148.64 118.56 149.707C119.029 151.307 119.509 152.896 120.693 154.155C120.971 154.528 121.589 155.093 122.283 155.733C123.947 157.259 126.091 159.232 125.365 160.096C125.461 160.299 125.653 160.523 125.899 160.736C126.24 161.035 126.688 161.355 127.136 161.675C128.437 162.603 129.813 163.573 128.853 164.341ZM211.819 126.528L202.197 135.989C199.637 138.517 196.469 140.395 193.035 141.429L192.853 141.483L192.789 141.643C191.677 144.54 189.953 147.164 187.733 149.333L178.112 158.805C173.92 162.933 168.341 165.205 162.389 165.205C156.448 165.205 150.869 162.933 146.667 158.805C144.609 156.789 142.974 154.383 141.858 151.727C140.742 149.071 140.168 146.219 140.168 143.339C140.168 140.458 140.742 137.606 141.858 134.95C142.974 132.295 144.609 129.888 146.667 127.872L156.288 118.4C158.869 115.861 161.952 114.037 165.451 112.981L165.621 112.939L165.685 112.768C166.805 109.867 168.512 107.264 170.752 105.045L180.373 95.584C184.565 91.456 190.155 89.184 196.096 89.184C202.048 89.184 207.616 91.456 211.819 95.584C216.021 99.712 218.325 105.205 218.325 111.051C218.325 116.907 216.021 122.4 211.819 126.517V126.528Z" fill="#1C3C3C"/>
</svg>
