<svg width="256" height="256" viewBox="0 0 256 256" fill="none" xmlns="http://www.w3.org/2000/svg">
<mask id="mask0_26_70" style="mask-type:luminance" maskUnits="userSpaceOnUse" x="0" y="0" width="256" height="256">
<path d="M142.213 10.6742C142.213 7.84321 143.713 5.12819 146.382 3.12639C149.051 1.1246 152.672 0 156.447 0H241.787C243.655 -1.38965e-06 245.505 0.276202 247.231 0.812814C248.956 1.34943 250.524 2.13592 251.844 3.1273C253.164 4.11869 254.211 5.29552 254.924 6.59048C255.637 7.88544 256.003 9.27313 256 10.6742V245.326C256.003 246.727 255.637 248.115 254.924 249.41C254.211 250.705 253.164 251.881 251.844 252.873C250.524 253.864 248.956 254.651 247.231 255.187C245.505 255.724 243.655 256 241.787 256H14.2133C12.3451 256 10.4953 255.724 8.76951 255.187C7.04376 254.651 5.47601 253.864 4.15592 252.873C2.83583 251.881 1.7893 250.705 1.07619 249.41C0.363082 248.115 -0.00261718 246.727 1.40989e-05 245.326V138.659C1.40989e-05 135.832 1.49748 133.121 4.163 131.122C6.82852 129.123 10.4437 128 14.2133 128H71.1067V74.6742C71.1067 71.8432 72.6063 69.1282 75.2755 67.1264C77.9448 65.1246 81.5651 64 85.34 64H142.213V10.6742Z" fill="white"/>
</mask>
<g mask="url(#mask0_26_70)">
<path d="M256 0V256H142.213V0H256Z" fill="url(#paint0_linear_26_70)"/>
<path d="M184.893 74.6742V256H71.1067V64H170.66C174.435 64 178.055 65.1246 180.725 67.1264C183.394 69.1282 184.893 71.8432 184.893 74.6742Z" fill="url(#paint1_linear_26_70)"/>
<path d="M0 128V256H113.787V138.659C113.781 135.831 112.279 133.12 109.611 131.121C106.942 129.123 103.325 128 99.5533 128H0Z" fill="url(#paint2_linear_26_70)"/>
</g>
<defs>
<linearGradient id="paint0_linear_26_70" x1="119.452" y1="1.35116" x2="211.14" y2="260.52" gradientUnits="userSpaceOnUse">
<stop stop-color="#E6AD10"/>
<stop offset="1" stop-color="#C87E0E"/>
</linearGradient>
<linearGradient id="paint1_linear_26_70" x1="61.7179" y1="67.6331" x2="139.878" y2="269.743" gradientUnits="userSpaceOnUse">
<stop stop-color="#F6D751"/>
<stop offset="1" stop-color="#E6AD10"/>
</linearGradient>
<linearGradient id="paint2_linear_26_70" x1="15.6947" y1="123.031" x2="57.6853" y2="255.752" gradientUnits="userSpaceOnUse">
<stop stop-color="#F9E589"/>
<stop offset="1" stop-color="#F6D751"/>
</linearGradient>
</defs>
</svg>
