<svg width="256" height="97" viewBox="0 0 256 97" fill="none" xmlns="http://www.w3.org/2000/svg">
<path d="M188.409 79.1218L195.805 60.4203H217.158L207.024 32.0511L219.698 5.34058e-05L256 96.3846H229.229L223.026 79.1218H188.409Z" fill="#3D3D3D"/>
<path d="M165.57 96.3849L204.432 0.000152588L178.668 0.000280663L152.084 62.2863L133.18 0.000408736H113.377L93.0796 62.2863L78.7654 33.9038L65.8115 73.8123L78.9635 96.3849H104.318L122.66 40.5278L140.148 96.3849H165.57Z" fill="#5A0FC8"/>
<path d="M24.4559 63.2974H40.3251C45.1322 63.2974 49.4127 62.7609 53.1667 61.6878L57.2707 49.0442L68.7407 13.707C67.8668 12.3217 66.869 11.012 65.7474 9.7779C59.8582 3.25923 51.2418 0 39.898 0H0V96.3846H24.4559V63.2974ZM45.4612 22.1742C47.7616 24.4894 48.9116 27.5875 48.9116 31.4688C48.9116 35.3799 47.9001 38.4818 45.8771 40.7745C43.6594 43.3221 39.5759 44.5958 33.6268 44.5958H24.4559V18.7013H33.6942C39.2387 18.7013 43.161 19.859 45.4612 22.1742Z" fill="#3D3D3D"/>
</svg>
