<svg width="256" height="256" viewBox="0 0 256 256" fill="none" xmlns="http://www.w3.org/2000/svg">
<g clip-path="url(#clip0_22_14)">
<path d="M126.476 0.00174751C115.92 0.0422344 105.839 0.785361 96.969 2.08093C70.8392 5.89143 66.095 13.8671 66.095 28.5757V48.0012H127.843V54.4764H66.095H42.9215C24.9758 54.4764 9.26198 63.38 4.34692 80.3177C-1.32255 99.7323 -1.57403 111.847 4.34692 132.119C8.73619 147.209 19.2184 157.96 37.1641 157.96H58.3945V134.674C58.3945 117.85 76.0286 103.011 96.969 103.011H158.645C175.814 103.011 189.519 91.3421 189.519 77.1098V28.5757C189.519 14.7626 175.402 4.38628 158.645 2.08093C148.038 0.623412 137.032 -0.0387399 126.476 0.00174751ZM93.0828 15.6253C99.4609 15.6253 104.67 19.995 104.67 25.3678C104.67 30.7216 99.4609 35.0509 93.0828 35.0509C86.6818 35.0509 81.496 30.7216 81.496 25.3678C81.496 19.995 86.6818 15.6253 93.0828 15.6253Z" fill="url(#paint0_linear_22_14)"/>
<path d="M197.22 54.4764V77.1098C197.22 94.6572 179.197 109.426 158.645 109.426H96.969C80.0749 109.426 66.095 121.362 66.095 135.327V183.861C66.095 197.674 80.6464 205.799 96.969 209.762C116.515 214.506 135.259 215.363 158.645 209.762C174.19 206.047 189.519 198.57 189.519 183.861V164.436H127.843V157.96H189.519H220.393C238.339 157.96 245.026 147.628 251.267 132.119C257.714 116.153 257.44 100.799 251.267 80.3177C246.832 65.5711 238.362 54.4764 220.393 54.4764H197.22ZM162.531 177.386C168.932 177.386 174.118 181.715 174.118 187.069C174.118 192.442 168.932 196.812 162.531 196.812C156.153 196.812 150.945 192.442 150.945 187.069C150.945 181.715 156.153 177.386 162.531 177.386Z" fill="url(#paint1_linear_22_14)"/>
</g>
<defs>
<linearGradient id="paint0_linear_22_14" x1="-7.69253e-07" y1="-5.51587e-07" x2="118.978" y2="122.825" gradientUnits="userSpaceOnUse">
<stop stop-color="#5A9FD4"/>
<stop offset="1" stop-color="#306998"/>
</linearGradient>
<linearGradient id="paint1_linear_22_14" x1="161.048" y1="185.436" x2="122.049" y2="119.231" gradientUnits="userSpaceOnUse">
<stop stop-color="#FFD43B"/>
<stop offset="1" stop-color="#FFE873"/>
</linearGradient>
<clipPath id="clip0_22_14">
<rect width="256" height="256" fill="white"/>
</clipPath>
</defs>
</svg>
