<svg width="256" height="256" viewBox="0 0 256 256" fill="none" xmlns="http://www.w3.org/2000/svg">
<path d="M218.281 74.5462L195.231 93.6163C232.95 124.822 232.95 175.097 195.231 205.725C157.512 236.93 96.7422 236.93 59.7217 205.725C22.0027 174.519 22.0027 124.244 59.7217 93.6163L119.443 44.2076L127.825 37.2732V0L37.719 74.5462C-12.573 116.153 -12.573 183.187 37.719 224.795C88.0109 266.402 169.037 266.402 218.281 224.795C268.573 182.898 268.573 116.153 218.281 74.5462Z" fill="#EE4C2C"/>
<path d="M173.228 69.9233C182.486 69.9233 189.992 63.7139 189.992 56.0543C189.992 48.3946 182.486 42.185 173.228 42.185C163.969 42.185 156.464 48.3946 156.464 56.0543C156.464 63.7139 163.969 69.9233 173.228 69.9233Z" fill="#EE4C2C"/>
</svg>
