<svg width="256" height="256" viewBox="0 0 256 256" fill="none" xmlns="http://www.w3.org/2000/svg">
<g clip-path="url(#clip0_22_24)">
<path d="M128.45 100.5C114.908 100.5 103.93 112.7 103.93 127.75C103.93 142.8 114.908 155 128.45 155C141.992 155 152.97 142.8 152.97 127.75C152.97 112.7 141.992 100.5 128.45 100.5Z" fill="#58C4DC"/>
<path d="M255.982 127.997C255.982 106.604 238.156 87.8407 209.772 75.4926C210.152 72.7118 210.495 69.9611 210.739 67.2605C213.538 36.5208 206.873 14.3343 191.982 4.77707C175.32 -5.91459 151.787 1.84565 127.991 23.0081C104.195 1.84565 80.6615 -5.91459 64 4.77707C49.1085 14.3343 42.4439 36.5208 45.2434 67.2605C45.4872 69.9611 45.8214 72.7218 46.2097 75.5127C43.8437 76.5166 41.5228 77.5807 39.2922 78.6951C13.9523 91.3544 0 108.883 0 127.997C0 149.391 17.8264 168.154 46.2097 180.502C45.8214 183.283 45.4872 186.033 45.2434 188.734C42.4439 219.474 49.1085 241.66 64 251.217C69.1199 254.444 74.9213 256.093 80.806 255.996C94.9118 255.996 111.384 247.744 127.991 232.986C144.589 247.744 161.07 255.996 175.194 255.996C181.079 256.092 186.88 254.442 192 251.217C206.891 241.66 213.556 219.474 210.757 188.734C210.513 186.033 210.17 183.283 209.79 180.502C238.174 168.174 256 149.381 256 127.997M175.086 13.5513C178.869 13.4498 182.609 14.4684 185.922 16.5028C196.262 23.1386 200.904 41.1387 198.647 65.8852C198.493 67.5717 198.312 69.2784 198.096 70.9951C186.294 67.044 174.209 64.2261 161.973 62.5723C154.556 51.612 146.308 41.3782 137.32 31.9831C151.434 19.8558 164.682 13.5513 175.077 13.5513M170.227 155.103C165.66 163.915 160.686 172.46 155.327 180.703C146.242 181.74 137.115 182.256 127.982 182.249C118.852 182.256 109.728 181.74 100.646 180.703C95.3008 172.46 90.3424 163.915 85.7909 155.103C81.2238 146.315 77.0731 137.267 73.3557 127.997C77.0731 118.727 81.2238 109.68 85.7909 100.892C90.3352 92.1147 95.2783 83.6005 100.601 75.3822C109.7 74.319 118.842 73.7896 127.991 73.7959C137.121 73.7899 146.245 74.3059 155.327 75.342C160.668 83.573 165.629 92.1006 170.191 100.892C174.755 109.682 178.905 118.729 182.626 127.997C178.905 137.265 174.755 146.313 170.191 155.103M188.839 145.064C191.705 153.752 194.058 162.639 195.883 171.667C187.964 174.412 179.891 176.575 171.717 178.143C174.824 172.936 177.834 167.518 180.748 161.889C183.629 156.328 186.329 150.716 188.875 145.104M110.842 195.189C116.459 195.57 122.193 195.791 128 195.791C133.807 195.791 139.577 195.57 145.203 195.189C139.869 202.292 134.122 208.999 128 215.267C121.891 209 116.159 202.293 110.842 195.189ZM84.2737 178.122C76.0969 176.562 68.0212 174.405 60.0988 171.667C61.9163 162.653 64.2601 153.78 67.1156 145.104C69.6261 150.716 72.3172 156.328 75.2431 161.889C78.169 167.451 81.1943 172.932 84.2737 178.143M67.1156 110.88C64.2704 102.237 61.9326 93.3974 60.1168 84.4174C68.0196 81.6762 76.0737 79.5066 84.2286 77.9221C81.1401 83.1123 78.1149 88.4933 75.198 94.1051C72.2811 99.717 69.617 105.259 67.0704 110.88M145.149 60.7953C139.532 60.4139 133.798 60.193 127.946 60.193C122.142 60.193 116.423 60.3938 110.788 60.7953C116.105 53.6918 121.837 46.9846 127.946 40.7171C134.07 46.9829 139.817 53.6902 145.149 60.7953ZM180.73 94.1051C177.804 88.4698 174.779 83.0487 171.654 77.8418C179.85 79.4095 187.944 81.576 195.883 84.327C194.061 93.3403 191.718 102.213 188.866 110.891C186.356 105.279 183.656 99.6668 180.739 94.1152M57.3715 65.8952C55.0868 41.1588 59.7556 23.1487 70.0866 16.5128C73.4008 14.4816 77.14 13.4632 80.9234 13.5613C91.3176 13.5613 104.566 19.8659 118.68 31.9931C109.686 41.3949 101.432 51.6354 94.0087 62.6024C81.7768 64.264 69.693 67.0716 57.8863 70.9951C57.6786 69.2784 57.4889 67.5818 57.3444 65.8952M44.2952 91.0532C45.6859 90.384 47.1037 89.7147 48.5486 89.0454C51.3892 102.368 55.241 115.398 60.0627 127.997C55.2319 140.621 51.3769 153.679 48.5396 167.029C25.5296 156.538 12.1913 142.002 12.1913 127.997C12.1913 114.725 23.9311 101.263 44.2952 91.0532ZM70.0866 239.482C59.7556 232.846 55.0868 214.836 57.3715 190.099C57.516 188.413 57.7057 186.716 57.9134 184.989C69.7155 188.939 81.8006 191.757 94.0358 193.412C101.455 204.376 109.703 214.617 118.689 224.021C99.0117 240.917 81.0317 246.489 70.1137 239.482M198.638 190.099C200.895 214.846 196.253 232.846 185.913 239.482C175.004 246.509 157.015 240.917 137.347 224.021C146.33 214.616 154.575 204.376 161.991 193.412C174.227 191.758 186.312 188.94 198.114 184.989C198.33 186.716 198.511 188.413 198.665 190.099M207.497 167.009C204.651 153.666 200.793 140.616 195.964 127.997C200.791 115.372 204.646 102.315 207.488 88.9651C230.452 99.456 243.827 113.993 243.827 127.997C243.827 142.002 230.489 156.538 207.478 167.029" fill="#58C4DC"/>
</g>
<defs>
<clipPath id="clip0_22_24">
<rect width="256" height="256" fill="white"/>
</clipPath>
</defs>
</svg>
