<svg width="256" height="256" viewBox="0 0 256 256" fill="none" xmlns="http://www.w3.org/2000/svg">
<path d="M196.36 176.26C227.62 145.02 232.82 99.54 207.96 74.7C183.1 49.86 137.62 55.06 106.36 86.3C75.0999 117.54 84.1399 177.26 94.7599 187.86C103.34 196.44 165.1 207.5 196.36 176.26Z" fill="#F89939"/>
<path d="M68.0799 131.12C49.9399 113 23.5399 109.98 9.1199 124.38C-5.3001 138.8 -2.2801 165.18 15.8599 183.3C33.9999 201.44 68.6599 196.18 74.8199 190.04C79.7999 185.06 86.2399 149.24 68.0799 131.12Z" fill="#3499CD"/>
<path d="M247.64 171.36C246.48 171.36 245.9 170.66 245.9 169.24C245.9 168.18 246.6 165.86 247.98 162.32C250 157.14 251.02 153.42 251.02 151.16C251.02 149.8 250.62 148.66 249.82 147.76C249.02 146.86 248.02 146.4 246.82 146.4C245.06 146.4 243.04 147.22 240.76 148.88C238.48 150.54 235.42 153.52 231.56 157.84C232.12 155.04 233.32 151.2 235.12 146.32L226.5 147.98C224.54 152.22 223.12 156.04 222.24 159.44C221.8 161.1 221.48 162.82 221.26 164.56C218.56 167.18 216.8 168.76 216.04 169.34C215.26 169.92 214.44 170.2 213.6 170.2C212.82 170.2 212.2 169.9 211.74 169.32C211.28 168.74 211.06 167.94 211.06 166.96C211.06 165.9 211.26 164.68 211.66 163.3C212.06 161.92 212.94 159.32 214.32 155.5L217.6 146.46L214.38 146.6C211.46 152.16 208.04 155.16 204.12 155.58C205.18 152.82 205.72 150.7 205.72 149.22C205.72 147.34 204.8 146.4 202.96 146.4C200.78 146.4 199.08 147.42 197.86 149.48C196.62 151.54 196 153.48 196 155.3C196 157.12 197.02 158.4 199.04 159.3C197.72 161.24 196.24 163.06 194.64 164.78C192.74 166.66 191.26 168.1 190.18 169.04C189.08 170.02 188.06 170.5 187.14 170.5C185.7 170.5 184.98 169.48 184.98 167.46C184.98 165.44 185.78 161.96 187.38 156.76L190.5 146.4H188.52L181.3 150.4C180.12 147.7 178.06 146.34 175.12 146.34C172.78 146.34 170.1 147.34 167.06 149.32C164.02 151.3 161.52 153.88 159.58 157.1C158.08 159.58 157.16 162.18 156.82 164.86C154.1 167.58 152.06 169.34 150.7 170.16C149.28 171 147.8 171.42 146.24 171.42C142.26 171.42 139.8 169.12 138.86 164.52C149.24 161.48 154.42 157.52 154.42 152.64C154.42 150.8 153.76 149.32 152.44 148.18C151.12 147.04 149.36 146.48 147.18 146.48C142.96 146.48 139.12 148.5 135.66 152.54C132.52 156.2 130.82 160.26 130.52 164.72C127.66 167.54 125.5 169.4 124.1 170.3C122.66 171.22 121.3 171.68 120.04 171.68C118.78 171.68 117.78 171.08 117.04 169.88C116.28 168.68 115.9 167.06 115.9 165C115.9 164.08 116 162.4 116.18 159.94C120.9 154.82 124.36 150.02 126.58 145.52C128.8 141.02 129.9 136.36 129.9 131.56C129.9 129.86 129.68 128.52 129.24 127.52C128.8 126.52 128.24 126.02 127.56 126.02C127.42 126.02 127.2 126.06 126.92 126.16L117.94 129.48C114.88 135.32 112.26 141.7 110.12 148.64C107.98 155.56 106.9 161.5 106.9 166.44C106.9 169.74 107.66 172.36 109.22 174.32C110.76 176.28 112.8 177.26 115.32 177.26C117.52 177.26 119.82 176.56 122.24 175.16C124.66 173.76 127.46 171.58 130.68 168.64C133.9 165.7 130.68 168.6 130.68 168.6C131.06 170.82 131.98 172.68 133.42 174.2C135.4 176.24 137.98 177.28 141.18 177.28C144.06 177.28 146.68 176.58 149.06 175.18C151.36 173.84 153.94 171.74 156.82 168.96C157.06 171.04 157.74 172.84 158.88 174.38C160.34 176.32 162.1 177.3 164.16 177.3C166.22 177.3 168.34 176.5 170.34 174.9C172.34 173.3 174.5 170.8 176.86 167.44C176.64 174.02 178.4 177.3 182.12 177.3C183.6 177.3 185.16 176.76 186.78 175.68C188.4 174.6 191.1 172.26 194.88 168.68C198.16 165.44 200.56 162.4 202.1 159.56C204.18 159.2 206.08 158.58 207.82 157.68C204.26 163.26 202.48 167.72 202.48 171.04C202.48 172.84 202.98 174.34 203.96 175.54C204.94 176.74 206.16 177.36 207.6 177.36C210.74 177.36 215.2 174.54 220.96 168.96C220.96 169.4 220.92 169.82 220.92 170.26C220.92 171.82 221.06 174.18 221.3 177.36L229.12 175.52C229.12 173.4 229.16 171.72 229.22 170.46C229.34 168.78 229.58 166.94 229.92 164.94C230.14 163.76 230.68 162.64 231.54 161.58L233.52 159.28C234.24 158.44 234.94 157.68 235.56 157.02C236.3 156.24 236.96 155.58 237.54 155.04C238.2 154.46 238.78 153.98 239.28 153.66C239.82 153.34 240.26 153.16 240.58 153.16C241.16 153.16 241.46 153.54 241.46 154.3C241.46 155.06 240.9 156.82 239.8 159.6C237.72 164.78 236.68 168.64 236.68 171.16C236.68 173.02 237.16 174.5 238.14 175.62C239.1 176.72 240.38 177.28 241.96 177.28C245.84 177.28 250.52 174.4 255.96 168.66V164.6C252.1 169.14 249.32 171.42 247.6 171.42L247.64 171.36ZM117.12 154.78C118.72 146.96 120.36 140.9 122.02 136.56C123.68 132.22 124.96 130.04 125.82 130.04C126.22 130.04 126.56 130.3 126.82 130.84C127.08 131.36 127.2 132.08 127.2 132.94C127.2 135.92 126.28 139.46 124.4 143.6C122.54 147.72 120.1 151.46 117.12 154.78ZM140.7 152.82C142.12 150.44 143.6 149.26 145.16 149.26C146.8 149.26 147.64 150.4 147.64 152.66C147.64 157.24 144.62 160.36 138.58 162.06C138.58 158.26 139.28 155.18 140.7 152.82ZM175.66 164.52C173.58 168.54 171.34 170.54 169 170.54C168.04 170.54 167.24 170.14 166.62 169.36C166 168.58 165.68 167.54 165.68 166.26C165.68 162.9 166.74 159.2 168.84 155.2C170.94 151.2 173.18 149.2 175.54 149.2C176.52 149.2 177.32 149.56 177.9 150.32C178.48 151.06 178.78 152.1 178.78 153.42C178.78 156.82 177.74 160.52 175.66 164.54V164.52Z" fill="#010101"/>
<path d="M150.92 129.76C151.22 130.18 151.36 130.72 151.36 131.36C151.36 132 151.18 132.58 150.82 133.12C150.46 133.66 149.94 134.1 149.24 134.4C148.56 134.7 147.78 134.86 146.92 134.86C145.48 134.86 144.4 134.56 143.64 133.96C142.88 133.36 142.4 132.48 142.2 131.3L144.06 131C144.16 131.74 144.46 132.32 144.92 132.7C145.4 133.1 146.06 133.3 146.92 133.3C147.78 133.3 148.42 133.12 148.84 132.78C149.26 132.44 149.46 132.02 149.46 131.54C149.46 131.12 149.28 130.78 148.9 130.54C148.64 130.38 148 130.16 146.98 129.9C145.6 129.56 144.66 129.26 144.12 129C143.58 128.74 143.18 128.4 142.92 127.94C142.66 127.48 142.5 127 142.5 126.46C142.5 125.96 142.62 125.52 142.84 125.1C143.06 124.68 143.38 124.34 143.76 124.06C144.06 123.84 144.44 123.66 144.94 123.52C145.44 123.38 145.98 123.3 146.56 123.3C147.42 123.3 148.18 123.42 148.84 123.68C149.5 123.92 149.98 124.26 150.3 124.7C150.62 125.12 150.82 125.7 150.94 126.42L149.1 126.66C149.02 126.1 148.78 125.64 148.38 125.32C147.98 125 147.42 124.84 146.68 124.84C145.82 124.84 145.2 124.98 144.84 125.26C144.48 125.54 144.28 125.88 144.28 126.26C144.28 126.5 144.36 126.72 144.5 126.92C144.66 127.12 144.9 127.28 145.22 127.42C145.4 127.48 145.96 127.64 146.88 127.9C148.2 128.26 149.12 128.54 149.66 128.76C150.18 128.98 150.6 129.32 150.9 129.74L150.92 129.76ZM159.86 132.64C159.36 133.1 158.76 133.32 158.02 133.32C157.1 133.32 156.36 132.98 155.8 132.32C155.24 131.66 154.94 130.56 154.94 129.08C154.94 127.6 155.24 126.54 155.82 125.88C156.4 125.22 157.18 124.86 158.12 124.86C158.74 124.86 159.28 125.04 159.72 125.42C160.16 125.8 160.46 126.36 160.64 127.1L162.46 126.82C162.24 125.7 161.76 124.84 161 124.24C160.24 123.64 159.26 123.34 158.06 123.34C157.1 123.34 156.24 123.56 155.42 124.02C154.62 124.46 154 125.14 153.62 126.04C153.22 126.94 153.02 127.98 153.02 129.18C153.02 131.02 153.48 132.44 154.4 133.42C155.32 134.4 156.54 134.9 158.04 134.9C159.24 134.9 160.26 134.54 161.1 133.82C161.92 133.1 162.44 132.1 162.64 130.84L160.8 130.6C160.66 131.54 160.36 132.22 159.86 132.68V132.64ZM164.24 134.6H166.12V123.56H164.24V134.6ZM164.24 121.5H166.12V119.34H164.24V121.5ZM177.7 123.54H175.28L170.84 128.04V119.34H168.96V134.58H170.84V130.2L172.16 128.94L175.82 134.58H178.14L173.48 127.64L177.7 123.54ZM179.62 121.5H181.5V119.34H179.62V121.5ZM179.62 134.6H181.5V123.56H179.62V134.6ZM188.44 132.92C188.1 132.96 187.82 133 187.62 133C187.34 133 187.12 132.96 186.98 132.86C186.84 132.76 186.72 132.64 186.66 132.5C186.6 132.34 186.56 132 186.56 131.48V125.02H188.44V123.56H186.56V119.7L184.7 120.82V123.56H183.32V125.02H184.7V131.38C184.7 132.5 184.78 133.24 184.92 133.58C185.08 133.94 185.34 134.22 185.7 134.42C186.08 134.64 186.6 134.74 187.28 134.74C187.7 134.74 188.16 134.68 188.7 134.58L188.42 132.92H188.44Z" fill="white"/>
</svg>
